<svg style="width: 1em; height: 1em;vertical-align: middle;fill: currentColor;overflow: hidden;" viewBox="0 0 1024 1024" version="1.1" xmlns="http://www.w3.org/2000/svg"><path d="M510.6688 814.08h-0.1024c-16.0768 0-31.1296-6.6048-42.3936-18.5344-0.1536-0.2048-0.3584-0.3584-0.512-0.5632L236.1856 534.016c-68.9664-73.6256-68.864-193.1776 0.256-266.6496 33.9968-36.1472 79.36-56.064 127.6928-56.064 48.3328 0 93.696 19.9168 127.6928 56.064l19.5072 20.736 20.736-22.0672c33.9968-36.1472 79.36-56.064 127.6928-56.064 48.3328 0 93.696 19.9168 127.6928 56.064 69.1712 73.5232 69.2224 193.0752 0.256 266.7008L553.472 795.136c-0.1536 0.2048-0.3584 0.4096-0.512 0.5632-11.2128 11.8272-26.2144 18.3808-42.2912 18.3808z m-5.0176-53.4528c1.8432 1.8432 3.7376 2.2528 5.0176 2.2528s3.1744-0.4096 5.0176-2.2528l234.1376-262.2976c0.1536-0.1536 0.3072-0.3072 0.4608-0.512 51.0464-54.272 51.0464-142.5408 0-196.7616-24.2688-25.7536-56.3712-39.936-90.4704-39.936s-66.2016 14.1824-90.4192 39.9872l-39.424 41.8816c-4.8128 5.12-11.5712 8.0384-18.6368 8.0384s-13.824-2.9184-18.6368-8.0384l-38.144-40.5504c-24.2688-25.7536-56.3712-39.9872-90.4192-39.9872s-66.2016 14.1824-90.4192 39.9872c-51.0464 54.272-51.0464 142.5408 0 196.7616 0.1536 0.2048 0.3584 0.3584 0.512 0.5632l231.424 260.864z" /></svg>