<svg style="width: 1em; height: 1em;vertical-align: middle;fill: currentColor;overflow: hidden;" viewBox="0 0 1024 1024" version="1.1" xmlns="http://www.w3.org/2000/svg"><path d="M182.857143 347.428571m-54.857143 0a54.857143 54.857143 0 1 0 109.714286 0 54.857143 54.857143 0 1 0-109.714286 0Z"  /><path d="M182.857143 530.285714m-54.857143 0a54.857143 54.857143 0 1 0 109.714286 0 54.857143 54.857143 0 1 0-109.714286 0Z"  /><path d="M182.857143 713.142857m-54.857143 0a54.857143 54.857143 0 1 0 109.714286 0 54.857143 54.857143 0 1 0-109.714286 0Z"  /><path d="M292.571429 347.428571c0-20.205714 16.274286-36.571429 36.608-36.571428h511.926857C861.330286 310.857143 877.714286 327.094857 877.714286 347.428571c0 20.205714-16.274286 36.571429-36.608 36.571429H329.179429A36.498286 36.498286 0 0 1 292.571429 347.428571z m0 182.857143c0-20.205714 16.274286-36.571429 36.608-36.571428h511.926857c20.224 0 36.608 16.237714 36.608 36.571428 0 20.205714-16.274286 36.571429-36.608 36.571429H329.179429A36.498286 36.498286 0 0 1 292.571429 530.285714z m0 182.857143c0-20.205714 16.274286-36.571429 36.608-36.571428h511.926857c20.224 0 36.608 16.237714 36.608 36.571428 0 20.205714-16.274286 36.571429-36.608 36.571429H329.179429A36.498286 36.498286 0 0 1 292.571429 713.142857z"  /></svg>