<svg style="width: 1em; height: 1em;vertical-align: middle;fill: currentColor;overflow: hidden;" viewBox="0 0 1024 1024" version="1.1" xmlns="http://www.w3.org/2000/svg"><path d="M512 128c51.863704 0 102.115556 10.145185 149.428148 30.151111 45.700741 19.342222 86.755556 47.028148 122.026667 82.299259 35.271111 35.271111 62.957037 76.325926 82.299259 122.026667 20.100741 47.407407 30.245926 97.659259 30.245926 149.522963s-10.145185 102.115556-30.151111 149.428148c-19.342222 45.700741-47.028148 86.755556-82.299259 122.026667-35.271111 35.271111-76.325926 62.957037-122.026667 82.299259-47.407407 20.100741-97.659259 30.245926-149.522963 30.245926s-102.115556-10.145185-149.428148-30.151111c-45.700741-19.342222-86.755556-47.028148-122.026667-82.299259s-62.957037-76.325926-82.299259-122.026667c-20.100741-47.407407-30.245926-97.659259-30.245926-149.522963s10.145185-102.115556 30.151111-149.428148c19.342222-45.700741 47.028148-86.755556 82.299259-122.026667 35.271111-35.271111 76.325926-62.957037 122.026667-82.299259 47.407407-20.100741 97.659259-30.245926 149.522963-30.245926m0-42.666667C276.385185 85.333333 85.333333 276.385185 85.333333 512s191.051852 426.666667 426.666667 426.666667 426.666667-191.051852 426.666667-426.666667S747.614815 85.333333 512 85.333333z" fill="#2E3030" /><path d="M406.660741 722.962963c-11.757037 0-21.333333-9.576296-21.333334-21.333333V322.37037c0-11.757037 9.576296-21.333333 21.333334-21.333333s21.333333 9.576296 21.333333 21.333333v379.25926c0 11.757037-9.576296 21.333333-21.333333 21.333333zM617.339259 722.962963c-11.757037 0-21.333333-9.576296-21.333333-21.333333V322.37037c0-11.757037 9.576296-21.333333 21.333333-21.333333s21.333333 9.576296 21.333334 21.333333v379.25926c0 11.757037-9.576296 21.333333-21.333334 21.333333z" fill="#2E3030" /></svg>