<svg style="width: 1em; height: 1em;vertical-align: middle;fill: currentColor;overflow: hidden;" viewBox="0 0 1024 1024" version="1.1" xmlns="http://www.w3.org/2000/svg"><path d="M379.337561 118.348432 145.347343 118.348432c-8.113795 0-16.247033 3.097548-22.444175 9.295714-6.197142 6.1777-9.295714 14.309914-9.295714 22.424732l0 729.759559c0 8.094352 3.098571 16.22759 9.295714 22.424732 6.197142 6.176676 14.33038 9.276271 22.444175 9.276271l233.990219 0c8.113795 0 16.247033-3.098571 22.444175-9.276271 6.1777-6.197142 9.275247-14.33038 9.275247-22.424732l0-729.760582c0-8.112772-3.098571-16.247033-9.275247-22.424732C395.584594 121.447003 387.451356 118.348432 379.337561 118.348432L379.337561 118.348432zM897.531634 127.643122c-6.197142-6.197142-14.33038-9.295714-22.444175-9.295714L641.09724 118.347408c-8.113795 0-16.247033 3.098571-22.444175 9.295714-6.196119 6.1777-9.295714 14.31196-9.295714 22.424732l0 729.759559c0 8.094352 3.099594 16.22759 9.295714 22.424732 6.197142 6.176676 14.33038 9.275247 22.444175 9.275247l233.990219 0c8.113795 0 16.247033-3.098571 22.444175-9.275247 6.197142-6.197142 9.275247-14.33038 9.275247-22.424732L906.806881 150.067854C906.806881 141.954059 903.727753 133.821845 897.531634 127.643122L897.531634 127.643122z" fill="#d44439" /></svg>